<svg width="95" height="94" viewBox="0 0 95 94" fill="none" xmlns="http://www.w3.org/2000/svg">
<path d="M44.4199 55.1908C44.1627 60.2194 44.0991 64.8734 43.7319 69.9141C45.6965 70.0954 47.9131 70.2687 50.0076 69.9598L49.3819 55.9067L49.2719 55.2378C47.6771 55.3009 46.1672 55.3654 44.4199 55.1908ZM32.1509 41.0692C29.7315 42.2982 26.1721 44.1557 26.5645 47.5175C27.0828 49.3536 29.0448 50.5396 30.5972 51.2944C39.1782 55.125 50.5697 55.2553 59.6293 52.3958C61.8657 51.5227 64.8684 50.2562 65.2793 47.4799C65.2555 45.1859 62.8587 43.742 61.1366 42.8636V42.7548C61.7371 42.5144 62.4278 42.2982 63.0495 42.2323V42.1706C60.0151 41.6199 57.0854 40.8154 54.1464 40.0283C54.7124 41.3351 55.1207 42.7132 55.5927 44.0711C56.4756 43.785 57.381 43.5674 58.3341 43.4358C59.8838 44.0469 62.103 44.9213 62.3231 46.8849C62.4954 48.721 60.5122 49.6155 59.2595 50.3609C52.6139 52.8108 45.1371 53.0499 38.2065 51.1869C36.2923 50.5758 33.5296 49.7914 33.2923 47.3214C34.6511 44.0711 38.1654 43.3941 41.1005 42.6044C39.5918 41.6199 38.058 40.7482 36.5958 39.6522C35.017 39.7409 33.5746 40.4406 32.1509 41.0692ZM46.8326 21.4529L45.9723 24.2506L41.6586 36.7699C42.739 36.8814 44.0766 36.7699 45.1371 36.8814V36.9848L44.5061 51.1453L44.6148 51.2944C45.9948 51.4314 47.7182 51.5012 49.1247 51.2581V51.0352L48.5613 37.3004L48.6462 36.8357L52.4415 36.7699C50.5485 31.7023 48.7124 26.5836 46.944 21.4529H46.8326ZM44.8282 15.1631C48.0019 12.9724 50.8494 16.0348 53.3085 17.7848C62.8162 25.5387 71.7884 34.414 78.6248 44.4364C79.4865 45.7298 79.8763 47.7378 79.1034 49.2018C77.331 52.197 74.9395 54.9302 72.6726 57.7065V57.8582C67.0199 63.9547 61.0504 70.2217 54.5997 75.3846C51.4513 77.3254 48.5613 81.5643 44.5061 78.9385C35.2728 72.102 26.4372 63.6028 18.9472 54.487C17.6772 52.4831 15.694 50.8404 14.8111 48.5679C13.5782 45.4894 16.2959 43.2813 17.8509 40.9631C25.4881 31.4202 34.9732 22.0627 44.8282 15.1631ZM52.7862 6.04864L49.2719 1.00253C48.841 0.736591 48.3041 0.296047 47.8282 0.167108C46.7916 -0.288211 45.674 0.262469 44.8282 0.91254L38.469 9.30437C28.2667 22.1057 16.1898 34.0594 3.01399 43.2222C1.97202 44.0469 0.423635 44.8514 0.101498 46.2107C-0.244502 47.4329 0.383865 48.4416 1.13287 49.2018C11.6839 56.5648 21.7709 65.3058 30.7496 75.2745C32.3431 76.9709 33.6356 78.6578 35.1946 80.2508C37.8207 83.7912 40.9056 87.3599 43.3196 91.1583C44.0766 91.9601 44.2065 93.2777 45.3903 93.6686C46.317 93.9936 47.461 94.2139 48.3452 93.6686L49.2241 92.774C60.141 77.1052 73.9863 63.0333 89.4555 51.6718C91.0039 50.2709 93.9615 49.7498 94.0039 47.1495C93.8939 45.9501 93.2045 44.7682 92.1877 44.1127L91.9345 44.0711C83.9739 38.5844 76.5568 32.3792 69.5692 25.3399L61.8472 17.167C58.7186 13.6534 55.6788 9.76103 52.7862 6.04864ZM43.6882 13.237C46.7915 10.7899 50.697 12.822 53.3085 15.0731C56.0434 17.1912 58.8923 19.5913 61.3925 22.0439L61.8472 22.3085C68.7711 28.8172 75.202 36.0513 80.4847 43.699C81.3411 45.0301 82.0981 46.5384 81.6195 48.3046C79.8577 52.7665 76.2784 56.323 73.1485 60.2194C66.377 67.6039 59.2343 74.7493 51.2378 80.4495C49.6205 81.6087 47.4385 82.6791 45.5003 81.7591C39.6144 78.6377 34.6511 73.5244 29.4995 68.8651C23.5247 63.2522 17.5287 56.7166 13.0003 49.8801C12.3268 48.9211 12.1372 47.7378 12.1571 46.4726C12.7391 44.1127 14.3352 42.1706 15.8451 40.1814C21.1955 33.2724 27.7496 26.7193 34.3687 20.733C34.5212 20.5799 34.8035 20.2535 35.0435 20.0977C37.8857 17.6075 40.7094 15.4035 43.6882 13.237Z" fill="#107FA8"/>
</svg>
