<svg width="94" height="94" viewBox="0 0 94 94" fill="none" xmlns="http://www.w3.org/2000/svg">
<path d="M53.9625 7.00024H10.0342C8.35845 7.00024 7 8.35876 7 10.0346V23.9666C7 25.6424 8.35845 27.0009 10.0342 27.0009H53.9625C55.6383 27.0009 56.9967 25.6424 56.9967 23.9666V10.0346C56.9967 8.35876 55.6383 7.00024 53.9625 7.00024Z" fill="#05BFCE"/>
<path d="M83.962 36.9985H10.0342C8.35845 36.9985 7 38.3571 7 40.0329V53.9648C7 55.6407 8.35845 56.9992 10.0342 56.9992H83.962C85.6377 56.9992 86.9962 55.6407 86.9962 53.9648V40.0329C86.9962 38.3571 85.6377 36.9985 83.962 36.9985Z" fill="#FFCD10"/>
<path d="M58.9549 66.9993H50.0342C48.3584 66.9993 47 68.3578 47 70.0336V83.9656C47 85.6414 48.3584 86.9999 50.0342 86.9999H58.9549C60.6306 86.9999 61.9891 85.6414 61.9891 83.9656V70.0336C61.9891 68.3578 60.6306 66.9993 58.9549 66.9993Z" fill="#95BF15"/>
<path d="M33.9209 67.2878H10.207C8.5313 67.2878 7.17285 68.6464 7.17285 70.3222V83.8834C7.17285 85.5593 8.5313 86.9178 10.207 86.9178H33.9209C35.5966 86.9178 36.9551 85.5593 36.9551 83.8834V70.3222C36.9551 68.6464 35.5966 67.2878 33.9209 67.2878Z" fill="#EE1700"/>
<path d="M83.9654 66.9993H75.3115C73.6358 66.9993 72.2773 68.3578 72.2773 70.0336V83.9656C72.2773 85.6414 73.6358 86.9999 75.3115 86.9999H83.9654C85.6411 86.9999 86.9996 85.6414 86.9996 83.9656V70.0336C86.9996 68.3578 85.6411 66.9993 83.9654 66.9993Z" fill="#205B67"/>
<path d="M83.9616 7H70.0303C68.3545 7 66.9961 8.35852 66.9961 10.0343V23.9663C66.9961 25.6421 68.3545 27.0006 70.0303 27.0006H83.9616C85.6373 27.0006 86.9957 25.6421 86.9957 23.9663V10.0343C86.9957 8.35852 85.6373 7 83.9616 7Z" fill="#0060FF"/>
</svg>
